<svg xmlns="http://www.w3.org/2000/svg" width="512" height="512" viewBox="0 80 512 512" data-svgdocument="" id="_lozZXmrQ4Bjc2v8Jjk5tP" class="fl-svgdocument" x="0" y="0" overflow="hidden" >
  <defs id="_OCOhh_n_vN0Rio0Fz3bQR" transform="matrix(0.775489330291748, 0, 0, 0.775489330291748, -81.92650604248047, 101.79067993164062)">
    <linearGradient x1="0%" y1="50%" x2="100%" y2="50%" id="o_f4l89aa9i_3" gradientUnits="objectBoundingBox">
      <stop offset="0%" stop-color="rgb(255,194,80)" stop-opacity="1" />
      <stop offset="100%" stop-color="rgb(0, 0, 0)" stop-opacity="0.61" />
    </linearGradient>
  </defs>
  <path id="_tMLbDoPeHYDf8vvgFsJ3A" fill="url(#o_f4l89aa9i_3)" d="M96.897 37.513c1.921 0 3.478-1.558 3.478-3.479c0-1.92-1.557-3.478-3.478-3.478s-3.478 1.558-3.478 3.478  c0 0.422 0.079 0.825 0.217 1.2l-10.153 8.649l-12.864-7.567c0.073-0.297 0.116-0.607 0.116-0.927c0-2.142-1.736-3.878-3.878-3.878  c-0.869 0-1.668 0.289-2.314 0.772L52.92 23.054c0.054-0.22 0.086-0.448 0.086-0.684c0-1.581-1.281-2.861-2.861-2.861  s-2.861 1.281-2.861 2.861c0 0.729 0.275 1.393 0.724 1.898l-5.835 12.488c-0.26-0.045-0.526-0.074-0.8-0.074  c-0.86 0-1.662 0.239-2.351 0.647l-15.438-6.915c0.036-0.225 0.06-0.454 0.06-0.689c0-2.38-1.929-4.309-4.309-4.309  c-2.379 0-4.309 1.929-4.309 4.309s1.929 4.309 4.309 4.309c1.352 0 2.556-0.623 3.346-1.596l14.682 6.576  c-0.384 0.674-0.607 1.452-0.607 2.284c0 0.852 0.293 1.605 0.694 2.29l-8.233 8.237c-1.136-0.811-2.506-1.294-4.003-1.294  c-2.642 0-4.915 1.501-6.082 3.684l-0.096-0.032c-0.001 0.012-0.004 0.023-0.005 0.035L7.553 49.002  c0.016-0.134 0.025-0.271 0.025-0.409c0-1.989-1.612-3.601-3.601-3.601s-3.601 1.612-3.601 3.601s1.612 3.601 3.601 3.601  c1.054 0 1.999-0.455 2.657-1.177l11.723 5.329c-0.005 0.013-0.009 0.025-0.015 0.037l0.056 0.019  c-0.054 0.348-0.108 0.694-0.108 1.055c0 1.954 0.813 3.716 2.115 4.975l-0.017 0.013c0.004 0.005 0.008 0.01 0.012 0.014  l-5.973 8.802c-0.155-0.027-0.314-0.044-0.478-0.044c-1.479 0-2.678 1.198-2.678 2.678c0 1.479 1.199 2.678 2.678 2.678  c1.479 0 2.678-1.199 2.678-2.678c0-0.501-0.14-0.969-0.38-1.37l5.364-7.904l0.71-0.877c0.881 0.407 1.859 0.641 2.894 0.641  c1.902 0 3.629-0.771 4.883-2.016l6.993 4.991c-0.199 0.514-0.334 1.06-0.334 1.641c0 2.548 2.065 4.617 4.617 4.617  c2.159 0 3.965-1.483 4.471-3.482l15.916-4.923c0.977 1.815 2.893 3.05 5.099 3.05c1.273 0 2.447-0.417 3.403-1.114l7.12 6.611  c-0.038 0.193-0.059 0.393-0.059 0.597c0 1.734 1.406 3.14 3.14 3.14s3.139-1.405 3.139-3.14c0-1.733-1.405-3.139-3.139-3.139  c-0.707 0-1.358 0.236-1.883 0.631l-6.811-6.323c0.552-0.887 0.893-1.93 0.893-3.05c0-2.815-1.661-5.16-4.661-5.677V39.104  c1-0.172 1.082-0.478 1.513-0.878l13.332 7.848l11.179 15.655c-0.092 0.23-0.146 0.481-0.146 0.745c0 1.125 0.91 2.037 2.035 2.037  s2.037-0.912 2.037-2.037s-0.913-2.037-2.038-2.037c-0.03 0-0.06 0.003-0.09 0.005L85.094 45.422l9.931-8.459  C95.565 37.31 96.207 37.513 96.897 37.513z M61.07 62.474c0 0.21 0.013 0.416 0.035 0.62l-15.275 4.724  c-0.522-1.975-2.316-3.435-4.458-3.435c-1.123 0-2.114 0.451-2.913 1.113l-7.038-5.022c0.447-0.92 0.717-1.93 0.717-3.017  c0-1.492-0.487-2.871-1.29-3.999l8.233-8.237c0.686 0.401 1.438 0.694 2.291 0.694c1.642 0 3.079-0.857 3.897-2.147l17.222 14.914  C61.609 59.699 61.07 61.022 61.07 62.474z M66 56.797c-1 0.1-1.135 0.273-1.596 0.502l-18.36-15.846  c0.002-0.052-0.023-0.102-0.023-0.154c0-1.485-0.718-2.802-1.806-3.646l5.799-12.428c0.046 0.002 0.088 0.007 0.134 0.007  c0.53 0 1.023-0.147 1.449-0.399l11.621 9.229c-0.151 0.415-0.113 0.861-0.113 1.328c0 1.757 0.895 3.238 2.895 3.715V56.797z" transform="matrix(3.810975943672788, 0, 0, 3.810975943672788, 64.02018057901233, 11.47678982318633)" />
  <path text="Thomas Schulze" text-anchor="middle" font-size="100" letter-spacing="0" side="left" offset="0.5" dx="0" dy="0" space="preserve" href="" font-family="Arimo" font-scale="contain" transform="matrix(0.6526223421096802, 0, 0, 0.6526223421096802, 256.7489418796249, 354.1049767777663)" x="0" y="0" fill="rgba(0, 0, 0, 0.6)" font-weight="700" data-fl-textpath="" id="_bACKzYL2clyS4dqlExFb0" font-style="normal" d="M-334.52125-57.67L-356.79125-57.67L-356.79125 0L-371.19125 0L-371.19125-57.67L-393.41125-57.67L-393.41125-68.8L-334.52125-68.8L-334.52125-57.67ZM-313.137265625-42.29L-312.937265625-42.29Q-310.157265625-48.34 -305.957265625-51.07Q-301.757265625-53.81 -295.947265625-53.81L-295.947265625-53.81Q-287.547265625-53.81 -283.057265625-48.63Q-278.567265625-43.46 -278.567265625-33.5L-278.567265625-33.5L-278.567265625 0L-292.237265625 0L-292.237265625-29.59Q-292.237265625-36.57 -294.577265625-40.04Q-296.927265625-43.51 -301.657265625-43.51L-301.657265625-43.51Q-306.637265625-43.51 -309.697265625-39.23Q-312.747265625-34.96 -312.747265625-28.27L-312.747265625-28.27L-312.747265625 0L-326.467265625 0L-326.467265625-72.46L-312.747265625-72.46L-312.747265625-52.69Q-312.747265625-50.93 -312.797265625-49.17Q-312.837265625-47.41 -312.917265625-45.7Q-312.987265625-43.99 -313.137265625-42.29L-313.137265625-42.29ZM-215.18328125-26.46L-215.18328125-26.46Q-215.18328125-13.62 -222.31328125-6.32Q-229.44328124999998 0.98 -242.04328125 0.98L-242.04328125 0.98Q-254.39328125 0.98 -261.42328125-6.35Q-268.45328125-13.67 -268.45328125-26.46L-268.45328125-26.46Q-268.45328125-39.21 -261.42328125-46.51Q-254.39328125-53.81 -241.74328125-53.81L-241.74328125-53.81Q-228.81328125-53.81 -221.99328125-46.75Q-215.18328125-39.7 -215.18328125-26.46ZM-229.54328125-26.46L-229.54328125-26.46Q-229.54328125-35.89 -232.61328125-40.14Q-235.69328124999998-44.38 -241.55328125-44.38L-241.55328125-44.38Q-247.80328125-44.38 -250.92328125-39.92Q-254.05328125-35.45 -254.05328125-26.46L-254.05328125-26.46Q-254.05328125-17.63 -251.00328125-13.01Q-247.95328125-8.4 -242.18328125-8.4L-242.18328125-8.4Q-235.84328125-8.4 -232.69328124999998-12.92Q-229.54328125-17.43 -229.54328125-26.46ZM-190.579296875-28.32L-190.579296875-28.32L-190.579296875 0L-204.299296875 0L-204.299296875-41.02Q-204.299296875-45.26 -204.419296875-47.97Q-204.539296875-50.68 -204.689296875-52.83L-204.689296875-52.83L-191.599296875-52.83Q-191.499296875-52.25 -191.35929687499998-50.07Q-191.209296875-47.9 -191.089296875-45.63Q-190.969296875-43.36 -190.969296875-42.33L-190.969296875-42.33L-190.769296875-42.33Q-188.229296875-48.39 -184.44929687500002-51.12Q-180.659296875-53.86 -175.389296875-53.86L-175.389296875-53.86Q-169.339296875-53.86 -165.649296875-50.98Q-161.959296875-48.1 -160.689296875-42.33L-160.689296875-42.33L-160.399296875-42.33Q-157.719296875-48.49 -153.959296875-51.17Q-150.19929687500002-53.86 -144.389296875-53.86L-144.389296875-53.86Q-136.669296875-53.86 -132.619296875-48.61Q-128.56929687500002-43.36 -128.56929687500002-33.54L-128.56929687500002-33.54L-128.56929687500002 0L-142.189296875 0L-142.189296875-29.64Q-142.189296875-36.62 -144.189296875-40.09Q-146.189296875-43.55 -150.19929687500002-43.55L-150.19929687500002-43.55Q-154.19929687500002-43.55 -156.889296875-39.67Q-159.569296875-35.79 -159.569296875-28.96L-159.569296875-28.96L-159.569296875 0L-173.189296875 0L-173.189296875-29.64Q-173.189296875-36.62 -175.19929687500002-40.09Q-177.19929687500002-43.55 -181.19929687500002-43.55L-181.19929687500002-43.55Q-185.349296875-43.55 -187.959296875-39.31Q-190.579296875-35.06 -190.579296875-28.32ZM-103.17328125 0.98L-103.17328125 0.98Q-110.84328125 0.98 -115.13328125-3.2Q-119.43328125-7.37 -119.43328125-14.94L-119.43328125-14.94Q-119.43328125-23.14 -114.08328125-27.39Q-108.74328125-31.64 -98.58328125-31.84L-98.58328125-31.84L-87.20328125-32.03L-87.20328125-34.72Q-87.20328125-39.89 -89.01328125-42.41Q-90.82328125000001-44.92 -94.92328125-44.92L-94.92328125-44.92Q-98.73328125-44.92 -100.51328125-43.19Q-102.29328125-41.46 -102.73328125-37.45L-102.73328125-37.45L-117.04328125-38.13Q-114.35328125-53.81 -94.33328125-53.81L-94.33328125-53.81Q-84.32328125000001-53.81 -78.90328124999999-48.88Q-73.48328125-43.95 -73.48328125-34.86L-73.48328125-34.86L-73.48328125-15.63Q-73.48328125-11.18 -72.48328125-9.5Q-71.48328125-7.81 -69.14328125-7.81L-69.14328125-7.81Q-67.57328125000001-7.81 -66.11328125-8.11L-66.11328125-8.11L-66.11328125-0.68Q-68.65328124999999-0.05 -70.46328125 0.27Q-72.26328125 0.59 -74.90328124999999 0.59L-74.90328124999999 0.59Q-80.07328125000001 0.59 -82.54328125-1.95Q-85.01328125-4.49 -85.49328125-9.42L-85.49328125-9.42L-85.79328125-9.42Q-88.67328125-4.25 -93.01328125-1.64Q-97.36328125 0.98 -103.17328125 0.98ZM-87.20328125-21.78L-87.20328125-24.46L-94.23328125-24.37Q-99.07328125000001-24.12 -101.02328125-23.34L-101.02328125-23.34Q-103.02328125-22.46 -104.07328125000001-20.7Q-105.12328125-18.95 -105.12328125-16.02L-105.12328125-16.02Q-105.12328125-12.26 -103.39328125-10.42Q-101.66328125-8.59 -98.78328125-8.59L-98.78328125-8.59Q-95.55328125-8.59 -92.87328125-10.35L-92.87328125-10.35Q-90.23328125-12.11 -88.72328125-15.21Q-87.20328125-18.31 -87.20328125-21.78L-87.20328125-21.78ZM-15.238046875000002-15.43L-15.238046875000002-15.43Q-15.238046875000002-7.76 -21.508046874999998-3.39Q-27.788046875 0.98 -38.868046875000005 0.98L-38.868046875000005 0.98Q-49.758046875000005 0.98 -55.538046875-2.47Q-61.328046875-5.91 -63.228046875-13.18L-63.228046875-13.18L-51.168046875-14.99Q-50.148046875-11.23 -47.628046874999995-9.67Q-45.118046875000005-8.11 -38.868046875000005-8.11L-38.868046875000005-8.11Q-33.108046875-8.11 -30.468046875-9.57Q-27.828046875-11.04 -27.828046875-14.16L-27.828046875-14.16Q-27.828046875-16.7 -29.958046875-18.19Q-32.078046875-19.68 -37.158046875-20.7L-37.158046875-20.7Q-41.018046874999996-21.48 -44.068046875-22.22Q-47.118046875000005-22.95 -49.288046875-23.66Q-51.468046875-24.37 -52.828046875-25L-52.828046875-25Q-56.888046875-27 -59.008046875-30.13Q-61.128046875-33.25 -61.128046875-37.84L-61.128046875-37.84Q-61.128046875-45.41 -55.298046875-49.63Q-49.458046875-53.86 -38.768046874999996-53.86L-38.768046874999996-53.86Q-29.348046875-53.86 -23.608046875-50.2Q-17.868046874999997-46.53 -16.458046875-39.6L-16.458046875-39.6L-28.618046874999997-38.33Q-29.198046875000003-41.55 -31.498046875-43.14Q-33.788046875-44.73 -38.768046874999996-44.73L-38.768046874999996-44.73Q-43.648046875-44.73 -46.098046875-43.48Q-48.538046875-42.24 -48.538046875-39.31L-48.538046875-39.31Q-48.538046875-37.01 -46.658046875-35.67Q-44.778046875-34.33 -40.328046875-33.45L-40.328046875-33.45Q-34.128046875-32.18 -29.318046875-30.83Q-24.508046874999998-29.49 -21.578046875-27.64L-21.578046875-27.64Q-18.698046875000003-25.78 -16.968046875-22.88Q-15.238046875000002-19.97 -15.238046875000002-15.43ZM 79.44039062499999-19.82L 79.44039062499999-19.82Q 79.44039062499999-9.72  71.950390625-4.37Q 64.450390625 0.98  49.950390625 0.98L 49.950390625 0.98Q 23.830390625 0.98  19.530390625-17.92L 19.530390625-17.92L 33.450390625-20.21Q 34.860390625-14.75  38.960390625-12.28Q 43.070390625-9.81  50.340390625-9.81L 50.340390625-9.81Q 57.910390625-9.81  61.670390625-12.11Q 65.430390625-14.4  65.430390625-18.99L 65.430390625-18.99Q 65.430390625-21.92  63.720390625-23.83Q 62.010390625-25.73  58.840390625-27L 58.840390625-27Q 57.280390625-27.64  54.250390625-28.39Q 51.220390625-29.15  46.730390625-30.08L 46.730390625-30.08Q 41.550390625-31.3  38.620390625-32.15Q 35.690390625-33.01  33.940390625-33.81Q 32.180390625-34.62  30.520390624999997-35.6L 30.520390624999997-35.6Q 26.860390625-37.79  24.800390625-41.46Q 22.750390625-45.12  22.750390625-50.59L 22.750390625-50.59Q 22.750390625-59.91  29.760390625-64.87Q 36.770390625000005-69.82  50.150390625-69.82L 50.150390625-69.82Q 62.940390625-69.82  69.36039062500001-65.82Q 75.780390625-61.82  77.64039062500001-52.59L 77.64039062500001-52.59L 63.670390625-50.68Q 62.600390625-55.13  59.300390625-57.37Q 56.010390625-59.62  49.850390625-59.62L 49.850390625-59.62Q 43.310390625-59.62  40.040390625-57.57Q 36.770390625000005-55.52  36.770390625000005-51.42L 36.770390625000005-51.42Q 36.770390625000005-48.73  38.160390625000005-47.02Q 39.550390625-45.31  42.280390624999995-44.09L 42.280390624999995-44.09Q 44.870390625-42.92  53.370390625-41.11L 53.370390625-41.11Q 58.300390625-40.04  61.860390625-39.09Q 65.430390625-38.13  67.580390625-37.26L 67.580390625-37.26Q 69.730390625-36.33  71.41039062499999-35.3Q 73.100390625-34.28  74.320390625-33.11L 74.320390625-33.11Q 76.810390625-30.71  78.120390625-27.42Q 79.44039062499999-24.12  79.44039062499999-19.82ZM 112.349609375 0.98L 112.349609375 0.98Q 100.339609375 0.98  93.799609375-6.18Q 87.259609375-13.33  87.259609375-26.12L 87.259609375-26.12Q 87.259609375-39.21  93.849609375-46.51Q 100.439609375-53.81  112.549609375-53.81L 112.549609375-53.81Q 121.879609375-53.81  127.979609375-49.12Q 134.079609375-44.43  135.639609375-36.18L 135.639609375-36.18L 121.82960937499999-35.5Q 121.239609375-39.55  118.899609375-41.97Q 116.549609375-44.38  112.259609375-44.38L 112.259609375-44.38Q 106.929609375-44.38  104.299609375-39.97Q 101.659609375-35.55  101.659609375-26.66L 101.659609375-26.66Q 101.659609375-17.53  104.369609375-12.96Q 107.079609375-8.4  112.449609375-8.4L 112.449609375-8.4Q 116.35960937499999-8.4  118.989609375-10.86Q 121.629609375-13.33  122.269609375-18.21L 122.269609375-18.21L 136.039609375-17.58Q 135.299609375-12.01  132.099609375-7.84Q 128.909609375-3.66  123.82960937499999-1.34Q 118.749609375 0.98  112.349609375 0.98ZM 159.27484375-42.29L 159.47484375-42.29Q 162.25484375-48.34  166.45484375-51.07Q 170.65484375-53.81  176.46484375-53.81L 176.46484375-53.81Q 184.86484375-53.81  189.35484375-48.63Q 193.84484375-43.46  193.84484375-33.5L 193.84484375-33.5L 193.84484375 0L 180.17484375 0L 180.17484375-29.59Q 180.17484375-36.57  177.83484375-40.04Q 175.48484375-43.51  170.75484375-43.51L 170.75484375-43.51Q 165.77484375-43.51  162.71484375-39.23Q 159.66484375-34.96  159.66484375-28.27L 159.66484375-28.27L 159.66484375 0L 145.94484375 0L 145.94484375-72.46L 159.66484375-72.46L 159.66484375-52.69Q 159.66484375-50.93  159.61484375-49.17Q 159.57484375-47.41  159.49484375-45.7Q 159.42484375-43.99  159.27484375-42.29L 159.27484375-42.29ZM 240.868828125-10.5L 240.62882812499998-10.5Q 237.888828125-4.49  233.668828125-1.76Q 229.438828125 0.98  223.62882812499998 0.98L 223.62882812499998 0.98Q 215.238828125 0.98  210.738828125-4.17Q 206.248828125-9.33  206.248828125-19.29L 206.248828125-19.29L 206.248828125-52.83L 219.96882812500002-52.83L 219.96882812500002-23.19Q 219.96882812500002-16.26  222.318828125-12.77Q 224.658828125-9.28  229.348828125-9.28L 229.348828125-9.28Q 234.328828125-9.28  237.37882812499998-13.55Q 240.428828125-17.82  240.428828125-24.51L 240.428828125-24.51L 240.428828125-52.83L 254.148828125-52.83L 254.148828125-11.82Q 254.148828125-8.45  254.248828125-5.49Q 254.348828125-2.54  254.538828125 0L 254.538828125 0L 241.458828125 0Q 241.158828125-3.52  241.018828125-6.15Q 240.868828125-8.79  240.868828125-10.5L 240.868828125-10.5ZM 268.1128125-72.46L 281.8328125-72.46L 281.8328125 0L 268.1128125 0L 268.1128125-72.46ZM 308.206015625-10.01L 335.306015625-10.01L 335.306015625 0L 292.916015625 0L 292.916015625-9.72L 317.776015625-42.92L 294.926015625-42.92L 294.926015625-52.83L 332.906015625-52.83L 332.906015625-43.02L 308.206015625-10.01ZM 391.116015625-23.78L 357.226015625-23.78Q 357.226015625-16.06  360.086015625-12.13Q 362.936015625-8.2  368.216015625-8.2L 368.216015625-8.2Q 371.82601562499997-8.2  374.146015625-9.79Q 376.466015625-11.38  377.396015625-14.5L 377.396015625-14.5L 390.336015625-13.38Q 384.716015625 0.98  367.526015625 0.98L 367.526015625 0.98Q 355.616015625 0.98  349.216015625-6.08Q 342.826015625-13.13  342.826015625-26.66L 342.826015625-26.66Q 342.826015625-39.75  349.316015625-46.78Q 355.806015625-53.81  367.726015625-53.81L 367.726015625-53.81Q 379.106015625-53.81  385.106015625-46.26Q 391.116015625-38.72  391.116015625-24.17L 391.116015625-24.17L 391.116015625-23.78ZM 357.326015625-32.37L 377.836015625-32.37Q 377.446015625-38.77  374.75601562500003-41.97Q 372.066015625-45.17  367.526015625-45.17L 367.526015625-45.17Q 362.696015625-45.17  360.086015625-41.8Q 357.466015625-38.43  357.326015625-32.37L 357.326015625-32.37Z" />
  <path text="IT Solutions" text-anchor="middle" font-size="100" letter-spacing="0" side="left" offset="0.5" dx="0" dy="0" space="preserve" href="" font-family="Arimo" font-scale="contain" transform="matrix(0.5078142285346985, 0, 0, 0.5078142285346985, 254.40830467259366, 407.6919671342116)" x="0" y="0" fill="#ffc250" data-fl-textpath="" id="_BV8dN3jNM7w4h0tzBWsKw" path="M-343.75000000000006 0C-171.87500000000003 0 171.87500000000006 0 343.75000000000006 0" font-weight="400" font-style="normal" d="M-253.8803515625-68.8L-244.5603515625-68.8L-244.5603515625 0L-253.8803515625 0L-253.8803515625-68.8ZM-176.5371484375-61.18L-200.1671484375-61.18L-200.1671484375 0L-209.4471484375 0L-209.4471484375-61.18L-233.0771484375-61.18L-233.0771484375-68.8L-176.5371484375-68.8L-176.5371484375-61.18ZM-86.1566015625-18.99L-86.1566015625-18.99Q-86.1566015625-9.47 -93.6066015625-4.25Q-101.0466015625 0.98 -114.5766015625 0.98L-114.5766015625 0.98Q-139.7266015625 0.98 -143.7266015625-16.5L-143.7266015625-16.5L-134.6966015625-18.31Q-133.1266015625-12.11 -128.0566015625-9.2Q-122.97660156250001-6.3 -114.2366015625-6.3L-114.2366015625-6.3Q-105.1966015625-6.3 -100.2966015625-9.4Q-95.3866015625-12.5 -95.3866015625-18.51L-95.3866015625-18.51Q-95.3866015625-21.88 -96.9266015625-23.97Q-98.4666015625-26.07 -101.24660156249999-27.44L-101.24660156249999-27.44Q-104.02660156249999-28.81 -107.8866015625-29.74Q-111.74660156249999-30.66 -116.4266015625-31.74L-116.4266015625-31.74Q-121.8466015625-32.96 -125.4866015625-34.13Q-129.1266015625-35.3 -131.4666015625-36.6Q-133.8166015625-37.89 -135.4766015625-39.36L-135.4766015625-39.36Q-137.9166015625-41.6 -139.2066015625-44.58Q-140.5066015625-47.56 -140.5066015625-51.42L-140.5066015625-51.42Q-140.5066015625-60.25 -133.7366015625-65.04Q-126.97660156250001-69.82 -114.3766015625-69.82L-114.3766015625-69.82Q-102.6566015625-69.82 -96.4566015625-66.24Q-90.25660156250001-62.65 -87.7666015625-54L-87.7666015625-54L-96.9466015625-52.39Q-98.4666015625-57.86 -102.7066015625-60.33Q-106.9566015625-62.79 -114.47660156250001-62.79L-114.47660156250001-62.79Q-122.72660156250001-62.79 -127.0766015625-60.06Q-131.4166015625-57.32 -131.4166015625-51.9L-131.4166015625-51.9Q-131.4166015625-48.73 -129.7366015625-46.66Q-128.0566015625-44.58 -124.8766015625-43.16L-124.8766015625-43.16Q-121.8966015625-41.75 -112.22660156250001-39.6L-112.22660156250001-39.6Q-108.27660156249999-38.67 -104.4166015625-37.67Q-100.55660156249999-36.67 -97.1466015625-35.16L-97.1466015625-35.16Q-95.1366015625-34.33 -93.30660156249999-33.13Q-91.47660156250001-31.93 -90.1166015625-30.37L-90.1166015625-30.37Q-88.25660156250001-28.32 -87.2066015625-25.54Q-86.1566015625-22.75 -86.1566015625-18.99ZM-30.1473828125-26.46L-30.1473828125-26.46Q-30.1473828125-12.6 -36.2573828125-5.81Q-42.3573828125 0.98 -53.9773828125 0.98L-53.9773828125 0.98Q-65.5473828125 0.98 -71.4573828125-6.08Q-77.3673828125-13.13 -77.3673828125-26.46L-77.3673828125-26.46Q-77.3673828125-40.14 -71.4373828125-46.97Q-65.5073828125-53.81 -53.687382812500005-53.81L-53.687382812500005-53.81Q-41.5773828125-53.81 -35.8673828125-47.14Q-30.1473828125-40.48 -30.1473828125-26.46ZM-39.3773828125-26.46L-39.3773828125-26.46Q-39.3773828125-37.4 -42.6273828125-42.36Q-45.8773828125-47.31 -53.5373828125-47.31L-53.5373828125-47.31Q-61.2573828125-47.31 -64.6973828125-42.26Q-68.1373828125-37.21 -68.1373828125-26.46L-68.1373828125-26.46Q-68.1373828125-16.02 -64.7473828125-10.77Q-61.3573828125-5.52 -54.077382812500005-5.52L-54.077382812500005-5.52Q-46.1673828125-5.52 -42.7773828125-10.6Q-39.3773828125-15.67 -39.3773828125-26.46ZM-19.212148437499998-72.46L-10.4221484375-72.46L-10.4221484375 0L-19.212148437499998 0L-19.212148437499998-72.46ZM 36.5446484375-9.03L 36.4046484375-9.03Q 33.3746484375-3.56  29.394648437500003-1.29Q 25.4146484375 0.98  19.5046484375 0.98L 19.5046484375 0.98Q 10.8146484375 0.98  6.7846484375-3.34Q 2.7546484375-7.67  2.7546484375-17.63L 2.7546484375-17.63L 2.7546484375-52.83L 11.5946484375-52.83L 11.5946484375-19.34Q 11.5946484375-11.43  14.0646484375-8.62Q 16.5246484375-5.81  22.4846484375-5.81L 22.4846484375-5.81Q 28.8346484375-5.81  32.4946484375-10.16Q 36.1546484375-14.5  36.1546484375-22.22L 36.1546484375-22.22L 36.1546484375-52.83L 44.9446484375-52.83L 44.9446484375-11.28Q 44.9446484375-6.69  45.0146484375-3.86Q 45.0946484375-1.03  45.2346484375 0L 45.2346484375 0L 36.9346484375 0Q 36.8946484375-0.24  36.7646484375-2.29Q 36.6446484375-4.35  36.5446484375-9.03L 36.5446484375-9.03ZM 78.9298828125-6.88L 78.9298828125-0.39Q 74.6298828125 0.78  70.0398828125 0.78L 70.0398828125 0.78Q 64.7698828125 0.78  62.1298828125-2.22Q 59.4998828125-5.22  59.4998828125-11.18L 59.4998828125-11.18L 59.4998828125-46.44L 53.3898828125-46.44L 53.3898828125-52.83L 59.8398828125-52.83L 62.4298828125-64.65L 68.2898828125-64.65L 68.2898828125-52.83L 78.0498828125-52.83L 78.0498828125-46.44L 68.2898828125-46.44L 68.2898828125-13.09Q 68.2898828125-9.28  69.5298828125-7.74Q 70.7798828125-6.2  73.8498828125-6.2L 73.8498828125-6.2Q 75.5098828125-6.2  78.9298828125-6.88L 78.9298828125-6.88ZM 86.3530859375-72.46L 95.1430859375-72.46L 95.1430859375-64.06L 86.3530859375-64.06L 86.3530859375-72.46ZM 86.3530859375-52.83L 95.1430859375-52.83L 95.1430859375 0L 86.3530859375 0L 86.3530859375-52.83ZM 153.29988281250002-26.46L 153.29988281250002-26.46Q 153.29988281250002-12.6  147.1898828125-5.81Q 141.0898828125 0.98  129.4698828125 0.98L 129.4698828125 0.98Q 117.8998828125 0.98  111.9898828125-6.08Q 106.0798828125-13.13  106.0798828125-26.46L 106.0798828125-26.46Q 106.0798828125-40.14  112.0098828125-46.97Q 117.9398828125-53.81  129.7598828125-53.81L 129.7598828125-53.81Q 141.8698828125-53.81  147.5798828125-47.14Q 153.29988281250002-40.48  153.29988281250002-26.46ZM 144.0698828125-26.46L 144.0698828125-26.46Q 144.0698828125-37.4  140.8198828125-42.36Q 137.5698828125-47.31  129.9098828125-47.31L 129.9098828125-47.31Q 122.1898828125-47.31  118.7498828125-42.26Q 115.3098828125-37.21  115.3098828125-26.46L 115.3098828125-26.46Q 115.3098828125-16.02  118.6998828125-10.77Q 122.08988281250001-5.52  129.3698828125-5.52L 129.3698828125-5.52Q 137.2798828125-5.52  140.6698828125-10.6Q 144.0698828125-15.67  144.0698828125-26.46ZM 173.2151171875-30.62L 173.2151171875-30.62L 173.2151171875 0L 164.4251171875 0L 164.4251171875-41.55Q 164.4251171875-46.19  164.3551171875-49Q 164.2851171875-51.81  164.1351171875-52.83L 164.1351171875-52.83L 172.4351171875-52.83Q 172.5351171875-51.9  172.6051171875-50.49Q 172.6851171875-49.07  172.7251171875-47.36Q 172.7751171875-45.65  172.8251171875-43.8L 172.8251171875-43.8L 172.9751171875-43.8Q 176.0051171875-49.27  179.9851171875-51.54Q 183.9551171875-53.81  189.8651171875-53.81L 189.8651171875-53.81Q 198.5551171875-53.81  202.5851171875-49.37Q 206.6151171875-44.92  206.6151171875-35.21L 206.6151171875-35.21L 206.6151171875 0L 197.7751171875 0L 197.7751171875-33.5Q 197.7751171875-41.06  195.3351171875-44.04Q 192.8951171875-47.02  186.8851171875-47.02L 186.8851171875-47.02Q 180.5451171875-47.02  176.8751171875-42.68Q 173.2151171875-38.33  173.2151171875-30.62ZM 259.5003515625-14.6L 259.5003515625-14.6Q 259.5003515625-7.13  253.8603515625-3.08Q 248.2203515625 0.98  238.0603515625 0.98L 238.0603515625 0.98Q 228.2003515625 0.98  222.8503515625-2.27Q 217.5003515625-5.52  215.8903515625-12.4L 215.8903515625-12.4L 223.6603515625-13.92Q 224.7803515625-9.67  228.3003515625-7.69Q 231.8103515625-5.71  238.0603515625-5.71L 238.0603515625-5.71Q 244.7503515625-5.71  247.8503515625-7.76Q 250.9503515625-9.81  250.9503515625-13.92L 250.9503515625-13.92Q 250.9503515625-17.04  248.8003515625-18.99Q 246.6503515625-20.95  241.8703515625-22.22L 241.8703515625-22.22Q 236.2103515625-23.73  232.8603515625-24.71Q 229.5203515625-25.68  227.7103515625-26.39Q 225.9003515625-27.1  224.8303515625-27.73L 224.8303515625-27.73Q 221.6103515625-29.59  219.8003515625-32.28Q 217.9903515625-34.96  217.9903515625-38.87L 217.9903515625-38.87Q 217.9903515625-46.09  223.1403515625-49.88Q 228.3003515625-53.66  238.1603515625-53.66L 238.1603515625-53.66Q 246.9003515625-53.66  252.0503515625-50.59Q 257.20035156250003-47.51  258.5703515625-40.72L 258.5703515625-40.72L 250.6603515625-39.75Q 249.9303515625-43.26  246.7303515625-45.14Q 243.53035156250002-47.02  238.1603515625-47.02L 238.1603515625-47.02Q 232.2003515625-47.02  229.3703515625-45.21Q 226.5403515625-43.41  226.5403515625-39.75L 226.5403515625-39.75Q 226.5403515625-37.06  228.1503515625-35.33Q 229.7603515625-33.59  234.3003515625-32.47L 234.3003515625-32.47Q 240.4003515625-31.01  245.9203515625-29.27Q 251.44035156249998-27.54  253.8303515625-25.83L 253.8303515625-25.83Q 256.6203515625-23.83  258.0603515625-21.12Q 259.5003515625-18.41  259.5003515625-14.6Z" />
</svg>