<?xml version="1.0" standalone="no"?>
<!DOCTYPE svg PUBLIC "-//W3C//DTD SVG 20010904//EN"
 "http://www.w3.org/TR/2001/REC-SVG-20010904/DTD/svg10.dtd">
<svg version="1.0" xmlns="http://www.w3.org/2000/svg"
 width="700.000000pt" height="700.000000pt" viewBox="0 0 700.000000 700.000000"
 preserveAspectRatio="xMidYMid meet">
<metadata>
Created by potrace 1.14, written by Peter Selinger 2001-2017
</metadata>
<g transform="translate(0.000000,700.000000) scale(0.100000,-0.100000)"
fill="#000000" stroke="none">
<path d="M3445 5596 c-59 -34 -82 -102 -50 -152 12 -18 9 -31 -26 -104 -22
-46 -37 -90 -35 -97 3 -8 2 -12 -2 -9 -9 5 -79 -131 -74 -146 1 -4 -2 -8 -8
-8 -5 0 -10 -5 -10 -10 0 -6 -15 -41 -33 -78 -28 -58 -35 -67 -56 -64 -13 2
-42 -1 -65 -8 -34 -9 -47 -8 -81 6 -22 10 -42 18 -45 19 -3 0 -39 17 -80 36
-86 40 -125 58 -304 138 -124 54 -130 58 -131 87 -1 34 -23 93 -40 109 -111
111 -287 53 -299 -98 -7 -87 57 -164 148 -181 36 -6 102 13 129 38 l24 22 189
-83 c104 -46 203 -89 219 -97 104 -48 147 -66 157 -66 7 0 8 -11 3 -32 -12
-56 -12 -92 1 -129 l12 -36 -159 -158 -159 -158 -37 16 c-63 27 -106 34 -158
27 -70 -9 -117 -34 -169 -90 l-45 -49 -226 102 c-202 91 -225 104 -225 125 0
72 -65 132 -144 132 -138 0 -191 -188 -73 -260 43 -27 116 -27 150 0 14 11 28
20 31 20 4 0 106 -45 227 -100 122 -55 224 -100 228 -100 3 0 7 -26 7 -58 2
-61 28 -134 61 -167 20 -20 20 -21 -96 -191 -108 -161 -118 -172 -152 -178
-41 -7 -85 -45 -91 -80 -12 -61 39 -126 101 -128 70 -2 117 54 107 125 -6 41
-3 47 99 197 129 190 124 184 160 170 66 -25 163 -10 237 37 21 12 40 23 43
23 6 0 95 -61 119 -82 19 -17 32 -22 49 -19 5 1 6 -2 3 -7 -3 -5 19 -26 49
-46 48 -33 53 -40 45 -61 -5 -13 -7 -40 -4 -60 15 -126 143 -195 258 -140 38
18 86 68 86 90 0 16 21 33 46 38 10 2 27 7 36 11 9 4 25 9 35 11 10 2 19 4 21
5 1 2 5 3 10 4 40 11 99 29 121 38 28 12 37 14 64 16 10 1 15 6 12 12 -3 5 0
7 8 4 12 -4 107 23 260 75 22 8 29 6 38 -10 5 -11 15 -16 21 -13 6 4 8 3 4 -4
-8 -13 31 -51 69 -66 40 -16 67 -17 60 -4 -4 7 -1 6 7 -2 9 -11 25 -13 53 -9
53 7 106 29 99 40 -11 18 5 8 34 -21 21 -20 36 -28 49 -24 15 5 15 4 3 -5 -13
-9 -12 -13 7 -31 12 -11 24 -20 27 -20 3 0 30 -25 61 -55 32 -32 61 -53 67
-49 6 4 8 3 5 -3 -9 -14 29 -47 44 -37 8 4 10 3 5 -5 -16 -25 -14 -61 3 -61
14 0 14 -2 1 -11 -11 -8 -12 -12 -2 -16 6 -2 12 -12 12 -20 0 -9 6 -13 14 -10
11 4 13 1 9 -10 -4 -10 -2 -14 4 -10 6 4 13 2 15 -5 3 -7 24 -12 55 -12 43 0
55 5 81 31 29 28 30 31 14 48 -15 16 -15 17 -1 7 14 -10 18 -10 23 4 9 24 8
27 -11 20 -15 -5 -15 -4 1 9 18 13 18 17 6 42 -28 54 -87 92 -110 70 -10 -9
-11 -9 -6 0 6 12 -4 12 -42 -1 -12 -4 -20 -11 -18 -15 3 -4 -1 -8 -9 -8 -8 0
-12 3 -10 7 5 8 -136 136 -147 132 -4 -1 -8 3 -8 9 0 13 -78 89 -91 89 -5 0
-9 7 -9 16 0 9 -5 13 -12 9 -7 -4 -5 0 6 9 10 8 15 19 12 24 -3 6 -1 12 6 14
21 7 16 118 -9 178 -20 46 -79 93 -144 113 -12 4 -15 16 -14 46 1 23 -2 44 -7
47 -4 3 -5 11 -1 17 11 17 11 57 1 63 -4 3 -5 11 -1 17 11 17 11 57 1 63 -4 3
-5 11 -1 17 11 17 11 57 1 63 -4 3 -5 11 -1 17 11 17 11 57 1 63 -4 3 -5 11
-1 17 11 17 11 57 1 63 -5 3 -5 11 0 17 10 14 10 47 -1 64 -4 6 -4 14 1 17 4
2 7 30 7 60 -1 42 2 56 12 56 8 0 11 5 7 12 -4 7 -3 8 5 4 6 -4 18 -2 26 4 11
9 19 8 36 -3 12 -9 28 -13 36 -10 7 3 13 2 11 -3 -2 -5 1 -10 5 -11 4 -1 14
-9 22 -17 26 -26 124 -78 135 -71 6 4 10 3 9 -2 -4 -21 2 -25 14 -8 13 17 14
16 13 -6 -1 -19 4 -24 21 -23 12 0 21 -2 20 -5 -1 -3 0 -6 3 -6 3 0 16 -10 30
-22 13 -13 27 -23 32 -23 19 0 23 -2 31 -16 5 -8 12 -12 18 -9 5 4 9 1 9 -4 0
-6 7 -11 16 -11 8 0 13 4 9 9 -3 5 -1 12 4 16 6 3 8 -5 5 -20 -4 -22 4 -30 22
-22 3 1 10 -6 15 -16 6 -9 14 -15 20 -12 5 4 9 -1 9 -10 0 -9 5 -13 10 -10 6
3 10 -2 10 -13 0 -26 33 -55 46 -42 7 7 11 6 11 -4 0 -8 -5 -12 -10 -9 -5 3
-7 0 -5 -8 3 -8 11 -13 17 -11 7 1 10 -2 6 -7 -3 -6 9 -33 27 -60 26 -39 38
-49 56 -46 12 2 20 0 17 -6 -4 -5 -11 -7 -16 -4 -5 4 -9 1 -9 -4 0 -6 4 -11 9
-11 5 0 11 -9 14 -21 8 -30 25 -15 22 20 -2 28 13 36 32 17 4 -4 1 -6 -7 -4
-8 2 -14 -5 -15 -17 0 -11 -4 -26 -8 -32 -10 -16 1 -36 14 -27 5 3 9 2 8 -3
-4 -14 20 -63 31 -63 5 0 10 -7 10 -15 0 -9 7 -18 15 -21 8 -3 17 -15 21 -26
4 -13 11 -17 22 -13 13 5 14 3 5 -6 -9 -9 -5 -21 20 -53 18 -22 35 -42 40 -44
4 -2 7 -8 7 -13 0 -6 9 -19 19 -30 13 -14 18 -30 14 -49 -6 -39 13 -75 32 -60
10 8 15 8 21 -1 4 -8 3 -9 -4 -5 -7 4 -12 3 -12 -2 0 -14 39 -22 64 -12 52 19
65 83 26 125 -19 20 -26 23 -39 12 -10 -8 -13 -8 -8 0 4 7 -1 14 -13 18 -11 3
-20 13 -20 21 0 8 -11 26 -25 39 -13 14 -22 25 -19 25 3 0 -1 6 -8 14 -7 8
-16 12 -20 9 -4 -2 -5 3 -2 11 4 10 1 16 -7 16 -7 0 -10 3 -6 6 8 8 -25 44
-35 38 -5 -3 -8 -2 -7 3 3 17 -1 32 -13 45 -7 8 -17 21 -23 30 -46 73 -119
167 -127 162 -5 -3 -8 1 -6 9 2 9 -6 23 -17 32 -11 9 -13 14 -5 10 10 -4 9 -2
-2 8 -10 8 -18 19 -18 26 0 6 -4 11 -10 11 -5 0 -10 7 -10 16 0 10 -6 14 -14
11 -10 -4 -12 0 -9 14 3 10 1 19 -5 19 -6 0 -10 9 -9 19 0 11 4 18 8 16 10 -7
40 31 32 40 -5 4 -2 5 5 1 13 -8 107 65 170 132 17 19 32 31 32 28 0 -3 10 4
23 17 12 12 21 26 19 30 -1 5 2 6 7 3 5 -4 24 7 41 24 17 16 34 30 38 31 41 4
60 3 55 -4 -9 -14 86 2 112 19 33 22 57 74 42 93 -9 12 -9 13 1 7 10 -6 12 1
9 29 -5 38 -13 53 -24 41 -4 -4 -1 -11 7 -16 9 -6 10 -10 3 -10 -18 0 -26 19
-13 35 9 11 4 19 -27 39 -42 27 -98 30 -145 6 -31 -15 -38 -33 -10 -24 13 5
14 4 3 -4 -7 -5 -18 -16 -23 -23 -8 -11 -9 -10 -4 4 3 9 2 17 -2 17 -13 0 -30
-57 -27 -95 2 -32 -3 -43 -36 -72 -22 -20 -36 -40 -32 -46 3 -6 1 -7 -6 -3
-15 10 -43 -13 -34 -27 3 -6 1 -7 -5 -3 -6 3 -15 -1 -20 -10 -5 -9 -13 -17
-18 -17 -5 -1 -8 -5 -7 -9 2 -5 -3 -8 -11 -8 -21 0 -67 -40 -59 -53 3 -7 3 -9
-2 -5 -10 10 -37 -11 -29 -23 3 -5 -3 -6 -12 -2 -13 5 -16 3 -11 -10 4 -10 2
-14 -6 -11 -7 2 -32 -14 -57 -36 -43 -38 -80 -52 -80 -30 0 6 -9 10 -20 10
-11 0 -20 4 -20 10 0 5 -11 12 -25 16 -14 3 -25 11 -25 16 0 6 -7 7 -16 4 -9
-3 -12 -2 -9 5 4 5 -7 15 -24 22 -17 6 -31 15 -31 20 0 4 -4 5 -10 2 -5 -3
-10 -1 -10 5 0 6 -4 8 -10 5 -5 -3 -10 -1 -10 4 0 6 -6 11 -14 11 -8 0 -16 4
-18 8 -6 16 -99 63 -110 56 -6 -4 -8 -3 -4 4 8 13 -82 65 -97 55 -6 -3 -7 -1
-3 5 6 10 -3 16 -24 14 -3 0 -3 22 -2 49 3 32 0 49 -8 49 -6 0 -8 5 -5 10 9
14 -14 42 -28 33 -5 -3 -7 -1 -3 5 7 12 -33 44 -46 36 -4 -3 -8 0 -8 6 0 11
-49 10 -140 -3 -16 -3 -30 3 -39 15 -7 11 -20 17 -28 14 -8 -3 -12 -2 -9 3 3
5 -11 22 -32 37 -20 16 -48 39 -62 52 -14 13 -37 31 -52 40 -16 9 -28 20 -28
24 0 4 -7 8 -15 8 -8 0 -15 4 -15 10 0 5 -20 23 -45 40 -25 17 -56 41 -68 53
-13 12 -34 30 -46 40 -13 10 -20 25 -17 32 3 8 1 17 -4 20 -5 3 -7 11 -4 18 2
7 -8 27 -24 45 -32 36 -91 49 -127 28z m160 -240 c22 -17 45 -35 51 -41 6 -5
26 -21 44 -35 18 -14 42 -33 53 -42 11 -10 24 -15 30 -11 6 3 7 1 3 -5 -4 -6
8 -21 27 -34 19 -13 53 -39 77 -58 23 -19 59 -49 79 -65 21 -17 35 -37 33 -44
-3 -9 0 -11 9 -6 11 6 12 5 2 -5 -10 -11 -10 -17 0 -29 10 -12 9 -13 -1 -7
-15 9 -8 -32 13 -74 14 -27 88 -74 99 -63 4 4 4 0 1 -8 -10 -25 -12 -130 -3
-135 5 -3 6 -10 2 -15 -10 -17 -12 -59 -2 -65 4 -3 5 -10 1 -17 -10 -16 -10
-58 -1 -63 5 -3 6 -10 2 -15 -10 -17 -12 -59 -2 -65 4 -3 5 -10 1 -17 -10 -16
-10 -58 -1 -63 5 -3 6 -10 2 -15 -10 -17 -12 -59 -2 -65 4 -3 5 -10 1 -17 -10
-16 -10 -58 -1 -63 5 -3 5 -10 2 -16 -4 -6 -7 -23 -8 -37 -1 -14 -6 -26 -13
-26 -6 0 -15 -3 -19 -7 -4 -5 -13 -8 -21 -8 -11 0 -92 63 -168 132 -11 10 -33
29 -48 43 -16 14 -33 22 -39 19 -6 -4 -8 -3 -5 3 4 5 -5 20 -18 31 -14 12 -25
19 -25 15 0 -4 -7 3 -16 15 -8 12 -20 19 -26 16 -6 -4 -8 -2 -5 3 4 6 -9 23
-28 38 -20 14 -44 36 -55 47 -11 12 -24 17 -31 13 -7 -5 -10 -4 -6 2 6 9 -52
67 -121 120 -12 10 -46 39 -75 65 -29 27 -55 48 -59 48 -5 0 -8 9 -8 21 0 11
-4 18 -9 15 -4 -3 -6 5 -4 18 5 25 -20 72 -48 93 -16 12 -15 16 6 60 94 189
154 326 149 335 -4 7 -2 8 5 4 7 -5 13 3 17 23 4 17 10 31 14 31 5 0 11 14 15
31 4 17 9 28 12 26 2 -3 16 -2 31 3 31 8 32 7 87 -34z m1740 -205 c3 -5 0 -13
-6 -17 -7 -4 -9 -3 -5 4 3 5 0 13 -6 15 -9 4 -10 6 -1 6 6 1 14 -3 18 -8z
m-27 -33 c7 -7 12 -17 12 -22 0 -6 -5 -3 -11 7 -6 9 -14 15 -20 12 -5 -4 -9
-1 -9 4 0 14 13 14 28 -1z m57 3 c-9 -8 -36 -10 -30 -2 2 4 11 8 20 8 8 0 13
-3 10 -6z m55 -3 c0 -6 -3 -8 -7 -5 -3 4 -13 1 -22 -6 -14 -11 -14 -10 -2 6
15 20 31 22 31 5z m-1285 -7 c3 -5 2 -12 -3 -15 -5 -3 -9 1 -9 9 0 17 3 19 12
6z m1140 -10 c3 -6 -3 -14 -13 -20 -14 -7 -19 -6 -19 4 0 7 7 11 15 7 10 -3
13 -1 8 6 -4 7 -5 12 -2 12 3 0 7 -4 11 -9z m56 -24 c-10 -9 -11 -8 -5 6 3 10
9 15 12 12 3 -3 0 -11 -7 -18z m55 3 c5 1 10 -4 12 -12 3 -11 2 -11 -6 0 -5 8
-13 13 -18 12 -5 -1 -10 4 -12 12 -3 11 -2 11 6 0 5 -8 13 -13 18 -12z m-1169
-32 c2 -17 0 -19 -7 -8 -5 8 -6 18 -4 22 8 12 10 10 11 -14z m1143 15 c-1 -13
-30 -48 -30 -36 0 7 5 15 10 18 6 4 8 11 5 16 -4 5 -1 9 4 9 6 0 11 -3 11 -7z
m-45 -31 c-3 -3 -11 0 -18 7 -9 10 -8 11 6 5 10 -3 15 -9 12 -12z m85 -3 c12
-8 10 -9 -9 -4 -17 5 -22 4 -16 -5 5 -9 4 -11 -4 -6 -6 4 -9 12 -6 17 8 12 16
11 35 -2z m-175 -17 c-3 -3 -11 0 -18 7 -9 10 -8 11 6 5 10 -3 15 -9 12 -12z
m58 1 c-5 -12 -3 -14 8 -8 8 5 11 4 6 -1 -11 -12 -57 -13 -57 -1 0 5 6 7 14 4
8 -3 17 1 20 9 3 8 8 14 10 14 3 0 2 -7 -1 -17z m-1103 -13 c0 -5 -5 -10 -11
-10 -5 0 -7 5 -4 10 3 6 8 10 11 10 2 0 4 -4 4 -10z m1185 0 c3 -5 1 -10 -4
-10 -6 0 -11 5 -11 10 0 6 2 10 4 10 3 0 8 -4 11 -10z m55 6 c0 -3 -4 -8 -10
-11 -5 -3 -10 -1 -10 4 0 6 5 11 10 11 6 0 10 -2 10 -4z m-1300 -31 c0 -2 -9
-3 -19 -2 -11 0 -18 5 -15 9 4 6 34 0 34 -7z m1120 0 c0 -12 -19 -12 -23 0 -4
9 -1 12 9 8 7 -3 14 -7 14 -8z m80 5 c0 -5 -4 -10 -10 -10 -5 0 -10 5 -10 10
0 6 5 10 10 10 6 0 10 -4 10 -10z m115 0 c3 -5 1 -10 -4 -10 -6 0 -11 5 -11
10 0 6 2 10 4 10 3 0 8 -4 11 -10z m-22 -20 c3 -11 1 -18 -4 -14 -5 3 -9 12
-9 20 0 20 7 17 13 -6z m-137 -9 c-4 -5 -1 -11 6 -13 8 -3 6 -6 -4 -10 -11 -5
-15 -2 -13 10 5 23 4 22 11 22 3 0 3 -4 0 -9z m80 0 c-4 -5 0 -11 6 -14 7 -3
3 -4 -8 -4 -21 1 -23 27 -2 27 5 0 7 -4 4 -9z m-1180 -16 c-1 -8 -5 -17 -8
-21 -5 -4 -4 16 1 34 3 9 9 -1 7 -13z m998 -1 c3 -8 2 -12 -4 -9 -6 3 -10 10
-10 16 0 14 7 11 14 -7z m144 -19 c-3 -3 -9 2 -12 12 -6 14 -5 15 5 6 7 -7 10
-15 7 -18z m-1178 11 c0 -3 -4 -8 -10 -11 -5 -3 -10 -1 -10 4 0 6 5 11 10 11
6 0 10 -2 10 -4z m95 -25 c-9 -8 -36 -10 -30 -2 2 4 11 8 20 8 8 0 13 -3 10
-6z m85 -21 c0 -5 -4 -10 -10 -10 -5 0 -10 5 -10 10 0 6 5 10 10 10 6 0 10 -4
10 -10z m860 6 c0 -3 -4 -8 -10 -11 -5 -3 -10 -1 -10 4 0 6 5 11 10 11 6 0 10
-2 10 -4z m-63 -36 c-1 -21 -10 -18 -13 5 -1 8 2 15 6 15 5 0 8 -9 7 -20z
m-40 -36 c-3 -3 -12 -4 -19 -1 -8 3 -5 6 6 6 11 1 17 -2 13 -5z m-77 -14 c0
-5 -5 -10 -11 -10 -5 0 -7 5 -4 10 3 6 8 10 11 10 2 0 4 -4 4 -10z m-850 -16
c0 -8 -19 -13 -24 -6 -3 5 1 9 9 9 8 0 15 -2 15 -3z m890 2 c0 -2 -7 -7 -16
-10 -8 -3 -12 -2 -9 4 6 10 25 14 25 6z m-43 -56 c1 -10 -1 -21 -5 -24 -4 -2
-7 9 -7 25 -1 31 7 30 12 -1z m-100 -35 c0 -8 -4 -12 -9 -9 -5 3 -6 10 -3 15
9 13 12 11 12 -6z m52 1 c9 -11 9 -16 -1 -22 -7 -4 -10 -4 -6 1 4 4 3 14 -3
22 -6 7 -9 13 -6 13 2 0 10 -6 16 -14z m-64 -35 c-9 -8 -36 -10 -30 -2 2 4 11
8 20 8 8 0 13 -3 10 -6z m-144 -18 c13 -16 12 -17 -3 -4 -10 7 -18 15 -18 17
0 8 8 3 21 -13z m89 2 c-7 -8 -17 -15 -23 -15 -6 0 -2 7 9 15 25 19 30 19 14
0z m-1466 -57 c39 -35 76 -67 83 -73 7 -5 26 -21 41 -35 16 -14 45 -40 65 -57
20 -18 38 -33 40 -33 2 0 27 -22 57 -50 29 -27 57 -47 62 -44 5 3 7 1 6 -3 -2
-5 20 -29 47 -53 28 -23 53 -48 58 -54 5 -7 12 -5 22 8 8 11 15 15 15 9 0 -7
-5 -15 -11 -19 -15 -9 38 -57 55 -51 8 3 13 -1 12 -11 0 -9 5 -16 12 -14 8 1
11 -2 8 -7 -4 -5 0 -13 7 -18 23 -13 24 -36 4 -56 -11 -11 -17 -27 -14 -38 3
-10 1 -17 -4 -13 -5 3 -9 -3 -10 -13 -1 -10 -2 -31 -3 -48 -1 -26 -6 -31 -41
-40 -22 -5 -45 -13 -50 -17 -6 -3 -27 -9 -47 -13 -23 -4 -35 -11 -31 -18 3 -6
1 -7 -5 -3 -10 6 -195 -45 -262 -71 -19 -8 -18 -7 -60 -17 -19 -5 -39 -12 -45
-16 -5 -4 -22 -10 -38 -14 -23 -5 -29 -3 -37 18 -13 35 -61 83 -96 96 -47 18
-102 21 -118 5 -7 -8 -16 -12 -19 -9 -3 3 -17 -2 -31 -11 -14 -10 -26 -13 -26
-8 0 5 -12 16 -27 24 -16 8 -30 16 -33 20 -3 3 -51 38 -107 79 -56 40 -100 77
-97 82 26 42 24 173 -4 227 l-21 40 160 162 c157 158 161 161 188 149 30 -12
72 -15 109 -6 32 7 89 43 96 61 3 8 8 15 12 15 3 0 38 -28 78 -62z m1442 10
c4 -7 3 -8 -5 -4 -6 4 -20 2 -29 -6 -15 -12 -16 -11 -3 5 16 20 27 22 37 5z
m32 -27 c-7 -9 -13 -18 -15 -20 -1 -2 -1 5 0 16 0 11 7 20 14 20 10 0 10 -4 1
-16z m17 -40 c3 -5 2 -12 -3 -15 -5 -3 -9 1 -9 9 0 17 3 19 12 6z m51 -53 c12
-14 13 -18 3 -10 -9 6 -18 10 -21 7 -2 -3 -5 2 -5 10 0 19 0 19 23 -7z m39
-77 c-9 -8 -36 -10 -30 -2 2 4 11 8 20 8 8 0 13 -3 10 -6z m90 -120 c-9 -8
-36 -10 -30 -2 2 4 11 8 20 8 8 0 13 -3 10 -6z m42 -57 c-3 -3 -12 -4 -19 -1
-8 3 -5 6 6 6 11 1 17 -2 13 -5z m16 -19 c-3 -9 -8 -14 -10 -11 -3 3 -2 9 2
15 9 16 15 13 8 -4z m27 -45 c0 -5 -4 -10 -10 -10 -5 0 -10 5 -10 10 0 6 5 10
10 10 6 0 10 -4 10 -10z m38 -35 c-3 -3 -9 2 -12 12 -6 14 -5 15 5 6 7 -7 10
-15 7 -18z m-1000 -10 c-3 -3 -9 2 -12 12 -6 14 -5 15 5 6 7 -7 10 -15 7 -18z
m-123 -14 c3 -5 2 -12 -3 -15 -5 -3 -9 1 -9 9 0 17 3 19 12 6z m31 -19 c-17
-16 -18 -16 -5 5 7 12 15 20 18 17 3 -2 -3 -12 -13 -22z m1085 0 c-7 -2 -18 1
-23 6 -8 8 -4 9 13 5 13 -4 18 -8 10 -11z m-1156 -10 c-3 -3 -11 0 -18 7 -9
10 -8 11 6 5 10 -3 15 -9 12 -12z m141 3 c-1 -8 -5 -17 -8 -21 -5 -4 -4 16 1
34 3 9 9 -1 7 -13z m40 -11 c1 -9 0 -13 -4 -10 -3 4 -7 14 -8 22 -1 9 0 13 4
10 3 -4 7 -14 8 -22z m1020 7 c-4 -5 -1 -11 6 -13 8 -3 6 -6 -4 -10 -11 -5
-15 -2 -13 10 5 23 4 22 11 22 3 0 3 -4 0 -9z m-939 -40 c0 -11 -5 -18 -9 -15
-4 3 -5 11 -1 19 7 21 12 19 10 -4z m-41 -27 c1 -9 0 -13 -4 -10 -3 4 -7 14
-8 22 -1 9 0 13 4 10 3 -4 7 -14 8 -22z m105 -1 c13 -16 12 -17 -3 -4 -17 13
-22 21 -14 21 2 0 10 -8 17 -17z m894 -13 c3 -6 -1 -7 -9 -4 -18 7 -21 14 -7
14 6 0 13 -4 16 -10z m16 -23 c-10 -9 -11 -8 -5 6 3 10 9 15 12 12 3 -3 0 -11
-7 -18z m-1096 -7 c3 -5 1 -10 -4 -10 -6 0 -11 5 -11 10 0 6 2 10 4 10 3 0 8
-4 11 -10z m41 -16 c1 -9 0 -13 -4 -10 -3 4 -7 14 -8 22 -1 9 0 13 4 10 3 -4
7 -14 8 -22z m58 18 c3 -5 -1 -9 -9 -9 -8 0 -12 4 -9 9 3 4 7 8 9 8 2 0 6 -4
9 -8z m1046 -2 c0 -5 -5 -10 -11 -10 -5 0 -7 5 -4 10 3 6 8 10 11 10 2 0 4 -4
4 -10z m55 -8 c-3 -3 -11 0 -18 7 -9 10 -8 11 6 5 10 -3 15 -9 12 -12z m-978
-17 c0 -8 -4 -12 -9 -9 -5 3 -6 10 -3 15 9 13 12 11 12 -6z m-120 -20 c0 -8
-4 -12 -9 -9 -4 3 -8 9 -8 15 0 5 4 9 8 9 5 0 9 -7 9 -15z m998 -5 c3 -5 1
-10 -4 -10 -6 0 -11 5 -11 10 0 6 2 10 4 10 3 0 8 -4 11 -10z m107 3 c-6 -2
-9 -10 -6 -15 4 -7 2 -8 -5 -4 -13 9 -5 26 12 25 9 0 8 -2 -1 -6z m-1222 -7
c0 -3 -4 -8 -10 -11 -5 -3 -10 -1 -10 4 0 6 5 11 10 11 6 0 10 -2 10 -4z m56
-11 c-1 -8 -5 -17 -8 -21 -5 -4 -4 16 1 34 3 9 9 -1 7 -13z m1119 -5 c-3 -5
-14 -10 -23 -9 -14 0 -13 2 3 9 27 11 27 11 20 0z m-995 -30 c0 -5 -5 -10 -11
-10 -5 0 -7 5 -4 10 3 6 8 10 11 10 2 0 4 -4 4 -10z m-80 -34 c0 -3 -4 -8 -10
-11 -5 -3 -10 -1 -10 4 0 6 5 11 10 11 6 0 10 -2 10 -4z m-43 -58 c2 -17 0
-19 -7 -8 -5 8 -6 18 -4 22 8 12 10 10 11 -14z m79 -4 c1 -9 0 -13 -4 -10 -3
4 -7 14 -8 22 -1 9 0 13 4 10 3 -4 7 -14 8 -22z m41 4 c2 -17 0 -19 -7 -8 -5
8 -6 18 -4 22 8 12 10 10 11 -14z m-87 -44 c0 -8 -19 -13 -24 -6 -3 5 1 9 9 9
8 0 15 -2 15 -3z m383 -239 c-3 -9 -8 -14 -10 -11 -3 3 -2 9 2 15 9 16 15 13
8 -4z m7 -29 c0 -2 -8 -10 -17 -17 -16 -13 -17 -12 -4 4 13 16 21 21 21 13z
m144 -54 c3 -5 -1 -9 -9 -9 -8 0 -12 4 -9 9 3 4 7 8 9 8 2 0 6 -4 9 -8z m-64
-20 c0 -5 -7 -9 -15 -9 -8 0 -12 4 -9 9 3 4 9 8 15 8 5 0 9 -4 9 -8z"/>
<path d="M997 3204 c-4 -4 -7 -130 -7 -280 0 -208 3 -273 13 -276 10 -4 65 -3
88 1 3 1 6 47 6 104 1 163 1 164 29 196 29 34 67 41 100 17 17 -13 20 -31 24
-167 l5 -152 53 -1 52 -1 0 145 c0 168 -9 209 -52 245 -29 24 -39 27 -90 23
-46 -3 -64 -10 -86 -31 -15 -15 -30 -27 -33 -27 -2 0 -4 46 -4 102 l0 103 -45
3 c-25 2 -49 0 -53 -4z"/>
<path d="M4643 3193 c-13 -28 -8 -534 5 -542 9 -6 71 -7 92 -2 3 0 5 53 5 117
-1 162 20 214 86 214 18 0 35 -9 48 -26 19 -24 21 -40 21 -164 0 -153 -2 -149
70 -145 l35 2 3 129 c4 159 -3 206 -33 242 -48 57 -147 58 -202 2 l-29 -30 1
98 c1 53 0 102 -2 108 -2 6 -24 12 -48 12 -34 2 -46 -2 -52 -15z"/>
<path d="M5585 3201 c-3 -2 -5 -128 -5 -280 l0 -276 52 0 53 1 3 274 c2 212
-1 275 -10 282 -13 8 -85 8 -93 -1z"/>
<path d="M3816 3178 c-85 -18 -131 -70 -129 -145 2 -84 55 -127 192 -157 120
-27 149 -51 130 -104 -10 -28 -57 -49 -102 -46 -17 1 -43 2 -56 3 -13 0 -39
17 -58 37 -32 34 -36 36 -78 30 -25 -4 -46 -10 -49 -14 -9 -15 24 -71 55 -94
51 -38 91 -47 192 -45 158 4 216 56 209 189 -2 34 -45 85 -87 102 -18 8 -59
20 -92 26 -123 26 -163 57 -140 108 12 26 56 40 112 35 29 -3 48 -12 68 -35
27 -28 33 -30 75 -24 25 3 47 8 49 10 7 7 -19 61 -39 83 -12 12 -36 28 -55 34
-44 14 -146 18 -197 7z"/>
<path d="M470 3135 l0 -45 84 0 c72 0 84 -3 88 -17 2 -10 3 -109 3 -220 -1
-136 2 -203 9 -204 6 -1 32 -2 57 -3 l46 -1 1 210 c0 115 1 216 1 223 1 8 25
12 86 12 l85 0 0 45 0 45 -230 0 -230 0 0 -45z"/>
<path d="M1605 3060 c-108 -16 -167 -91 -166 -211 0 -121 61 -194 169 -205
160 -17 256 79 239 241 -7 65 -27 107 -69 139 -38 28 -115 44 -173 36z m78
-81 c36 -16 54 -64 52 -136 -3 -70 -22 -108 -62 -124 -39 -15 -88 5 -106 44
-19 39 -17 152 3 184 25 39 70 52 113 32z"/>
<path d="M2737 3059 c-57 -9 -112 -47 -121 -85 -4 -14 -6 -28 -4 -29 2 -2 25
-5 51 -7 45 -5 49 -3 63 23 12 23 21 29 48 29 40 0 54 -15 60 -61 l4 -34 -65
-2 c-127 -3 -183 -45 -183 -137 0 -36 6 -52 28 -76 48 -54 147 -53 201 2 17
18 31 26 31 19 0 -25 48 -61 84 -61 52 0 66 9 66 41 0 22 -5 29 -19 29 -30 0
-34 15 -36 135 -1 72 -7 120 -16 139 -30 61 -100 88 -192 75z m99 -250 c-5
-65 -69 -113 -112 -84 -43 28 -20 101 34 107 69 8 80 5 78 -23z"/>
<path d="M4345 3060 c-103 -15 -160 -93 -159 -215 1 -92 27 -144 90 -181 41
-24 52 -26 116 -22 77 6 108 22 146 78 36 53 30 65 -28 65 -46 0 -52 -3 -70
-32 -11 -18 -23 -33 -27 -34 -5 0 -18 -2 -30 -5 -14 -2 -33 6 -50 20 -24 21
-28 32 -31 94 -2 39 1 86 7 105 22 66 105 73 133 11 11 -23 16 -25 62 -22 27
2 51 8 53 14 5 14 -36 73 -67 95 -33 24 -95 36 -145 29z"/>
<path d="M1930 2854 c0 -153 3 -203 13 -206 6 -3 30 -4 52 -3 l40 1 6 145 c3
79 7 145 7 146 15 20 51 43 68 43 42 0 49 -24 54 -184 l5 -150 53 -1 52 -1 0
131 c0 104 4 137 18 165 19 40 54 50 87 26 18 -13 20 -28 23 -163 2 -85 8
-150 14 -154 8 -5 45 -5 91 0 14 2 7 303 -8 337 -23 54 -52 74 -111 74 -45 0
-57 -4 -83 -31 -17 -17 -31 -36 -31 -42 0 -7 -9 3 -20 21 -23 37 -54 52 -112
52 -32 0 -47 -7 -75 -35 -41 -41 -40 -41 -40 -17 0 46 -2 48 -53 48 l-50 0 0
-202z"/>
<path d="M3109 3044 c-82 -34 -94 -153 -21 -196 15 -9 63 -25 107 -37 44 -11
85 -28 92 -37 26 -35 -14 -64 -88 -64 -30 0 -47 7 -66 26 -21 22 -31 25 -66
20 -22 -3 -41 -7 -43 -9 -2 -1 4 -17 13 -34 22 -47 83 -73 169 -73 121 1 185
45 186 131 1 62 -43 100 -143 124 -92 22 -109 31 -109 55 0 25 29 40 79 40 30
0 44 -6 59 -25 18 -22 25 -25 61 -19 23 4 41 12 41 19 0 22 -42 67 -76 81 -43
18 -149 17 -195 -2z"/>
<path d="M5103 3043 c-3 -7 -3 -79 -1 -161 4 -163 15 -200 68 -227 16 -8 50
-15 76 -15 40 0 51 5 85 38 l38 39 3 -36 c3 -37 9 -39 88 -32 14 1 16 27 14
199 -1 108 -2 199 -3 202 -1 3 -23 6 -51 6 -39 0 -50 -3 -51 -15 0 -9 -2 -70
-3 -136 -2 -132 -15 -169 -64 -182 -33 -8 -74 15 -83 47 -4 14 -7 84 -8 156
l-1 131 -51 0 c-33 -1 -53 -6 -56 -14z"/>
<path d="M5790 3015 l0 -40 85 2 c65 2 84 -1 78 -10 -4 -7 -46 -65 -95 -129
-71 -94 -88 -124 -88 -152 0 -18 6 -36 13 -38 6 -2 80 -4 162 -3 l150 0 3 40
3 41 -96 -1 c-53 -1 -98 2 -100 5 -2 3 38 61 88 128 70 93 92 130 91 152 0 17
-4 33 -8 38 -4 4 -70 7 -147 7 l-139 0 0 -40z"/>
<path d="M6255 3043 c-68 -36 -95 -94 -94 -198 1 -142 74 -213 209 -203 63 4
120 35 141 75 15 28 14 30 -38 38 -36 5 -45 2 -67 -20 -42 -42 -97 -29 -122
30 -27 66 -28 65 117 65 l131 0 -5 55 c-7 70 -45 137 -91 159 -44 21 -141 20
-181 -1z m151 -74 c3 -5 9 -23 14 -39 l9 -30 -81 0 -80 0 7 27 c8 34 23 53 50
63 21 8 71 -5 81 -21z"/>
<path d="M3369 2428 c-2 -13 -4 -111 -4 -218 l1 -195 27 -3 27 -3 0 220 0 221
-24 0 c-17 0 -25 -6 -27 -22z"/>
<path d="M4000 2422 c0 -28 4 -30 51 -23 3 1 5 12 5 26 0 21 -5 25 -28 25 -24
0 -28 -4 -28 -28z"/>
<path d="M1959 2406 c-3 -97 -4 -373 -1 -383 2 -7 14 -13 27 -13 13 0 25 6 27
13 2 6 4 100 4 207 l-1 195 -28 3 c-23 3 -27 0 -28 -22z"/>
<path d="M2086 2422 c-3 -3 -6 -14 -6 -24 0 -16 9 -18 70 -18 60 0 70 -3 71
-17 1 -10 2 -92 3 -183 l1 -165 28 -3 27 -3 0 185 0 186 74 0 c72 0 73 0 69
24 l-5 24 -163 0 c-90 0 -166 -3 -169 -6z"/>
<path d="M2704 2416 c-17 -8 -39 -24 -48 -37 -18 -27 -21 -81 -6 -110 14 -25
72 -54 138 -68 96 -20 133 -52 117 -100 -8 -25 -64 -51 -109 -51 -50 0 -103
24 -111 49 -4 14 -15 21 -30 21 -34 0 -40 -18 -18 -48 35 -48 77 -65 157 -65
109 0 168 39 170 112 2 78 -14 90 -184 143 -62 19 -75 27 -81 48 -8 34 -1 48
32 65 51 27 139 12 160 -26 13 -25 59 -26 59 -1 0 23 -34 60 -67 73 -36 13
-143 10 -179 -5z"/>
<path d="M3857 2393 c-2 -4 -7 -20 -11 -35 -4 -19 -13 -28 -26 -28 -26 0 -26
-30 0 -37 19 -5 20 -14 20 -122 0 -143 10 -164 73 -159 30 2 43 8 45 21 3 13
-3 17 -23 17 -35 0 -41 22 -39 133 2 116 0 107 28 107 45 0 41 35 -4 41 -20 3
-25 10 -25 34 0 28 -26 48 -38 28z"/>
<path d="M3115 2332 c-86 -19 -126 -152 -76 -256 25 -51 60 -69 128 -68 84 1
135 62 134 161 0 71 -20 123 -55 146 -25 17 -92 25 -131 17z m80 -46 c39 -17
48 -41 48 -124 0 -63 -25 -104 -69 -113 -63 -12 -99 33 -97 123 1 78 21 111
81 127 1 1 18 -5 37 -13z"/>
<path d="M4197 2323 c-54 -22 -81 -84 -74 -169 8 -102 48 -145 135 -146 97 0
144 51 145 161 0 107 -39 159 -125 165 -24 2 -60 -3 -81 -11z m125 -54 c36
-41 34 -163 -3 -200 -26 -26 -90 -26 -115 2 -23 26 -31 142 -12 179 27 50 94
60 130 19z"/>
<path d="M4574 2326 c-18 -8 -37 -22 -43 -33 -9 -16 -10 -15 -11 10 0 22 -4
27 -25 27 l-25 0 0 -161 0 -160 27 3 28 3 1 95 c2 134 2 134 24 158 25 26 81
30 104 6 13 -12 16 -40 16 -140 l0 -124 28 0 28 0 -1 133 c-2 164 -9 181 -89
192 -17 2 -45 -2 -62 -9z"/>
<path d="M4855 2324 c-22 -7 -41 -14 -41 -14 -4 0 -16 -37 -20 -58 -9 -45 37
-84 115 -99 47 -8 81 -33 81 -60 0 -45 -104 -60 -143 -20 -23 22 -67 26 -67 6
0 -6 13 -24 29 -40 28 -28 38 -31 96 -31 63 0 77 4 106 30 65 58 31 129 -76
159 -69 19 -96 38 -88 61 10 25 24 32 70 32 29 0 48 -6 60 -20 25 -26 64 -23
53 4 -19 51 -104 76 -175 50z"/>
<path d="M3500 2206 c0 -134 7 -169 40 -186 35 -19 99 -15 130 8 l28 21 5 -20
c4 -15 12 -20 29 -17 23 3 23 3 23 158 l-1 155 -27 3 -27 3 -1 -108 c-1 -59
-1 -111 -1 -114 1 -4 -10 -19 -23 -33 -17 -18 -34 -26 -58 -26 -54 0 -61 17
-62 154 l-1 121 -27 3 -27 3 0 -125z"/>
<path d="M4000 2169 l0 -160 28 3 27 3 0 158 0 157 -27 0 -28 0 0 -161z"/>
</g>
</svg>
